<?xml version="1.0" encoding="UTF-8" standalone="no"?>
<!DOCTYPE svg PUBLIC "-//W3C//DTD SVG 1.1//EN" "http://www.w3.org/Graphics/SVG/1.1/DTD/svg11.dtd">
<svg width="100%" height="100%" viewBox="0 0 249 249" version="1.1" xmlns="http://www.w3.org/2000/svg" xmlns:xlink="http://www.w3.org/1999/xlink" xml:space="preserve" xmlns:serif="http://www.serif.com/" style="fill-rule:evenodd;clip-rule:evenodd;stroke-linejoin:round;stroke-miterlimit:2;">
    <g transform="matrix(1,0,0,1,-916.950833,-319.462917)">
        <g transform="matrix(4.166667,0,0,4.166667,0,0)">
            <g transform="matrix(1,0,0,1,231.2752,136.3381)">
                <path d="M0,-59.667L37.255,-59.667C43.418,-59.667 48.461,-54.624 48.461,-48.46L48.461,-11.206C48.461,-5.042 43.418,0 37.255,0L0,0C-6.164,0 -11.207,-5.042 -11.207,-11.206L-11.207,-48.46C-11.207,-54.624 -6.164,-59.667 0,-59.667ZM23.25,-42.154C24.861,-42.154 27.586,-42.131 27.586,-42.131L27.586,-47.604C27.586,-47.604 25.69,-47.651 23.203,-47.604C20.715,-47.556 14.602,-47.367 14.602,-40.164L14.602,-35.52L9.863,-35.52L9.863,-29.834L14.602,-29.834L14.602,-12.064L21.378,-12.064L21.378,-29.834L26.923,-29.834L27.586,-35.52L21.378,-35.52L21.378,-40.164C21.378,-40.164 21.639,-42.154 23.25,-42.154Z" style="fill:white;"/>
            </g>
        </g>
    </g>
</svg>
