<?xml version="1.0" encoding="UTF-8" standalone="no"?>
<!DOCTYPE svg PUBLIC "-//W3C//DTD SVG 1.1//EN" "http://www.w3.org/Graphics/SVG/1.1/DTD/svg11.dtd">
<svg width="100%" height="100%" viewBox="0 0 1004 638" version="1.1" xmlns="http://www.w3.org/2000/svg" xmlns:xlink="http://www.w3.org/1999/xlink" xml:space="preserve" xmlns:serif="http://www.serif.com/" style="fill-rule:evenodd;clip-rule:evenodd;stroke-linejoin:round;stroke-miterlimit:2;">
    <g transform="matrix(1,0,0,1,-1209.154687,0)">
        <g id="Page-2" serif:id="Page 2" transform="matrix(4.166667,0,0,4.166667,1209.154687,0)">
            <rect x="0" y="0" width="240.945" height="153.071" style="fill:none;"/>
            <clipPath id="_clip1">
                <rect x="0" y="0" width="240.945" height="153.071"/>
            </clipPath>
            <g clip-path="url(#_clip1)">
                <g id="PRINT-2" serif:id="PRINT 2">
                    <g>
                        <clipPath id="_clip2">
                            <rect x="-8.504" y="-8.503" width="257.953" height="170.078" clip-rule="nonzero"/>
                        </clipPath>
                        <g clip-path="url(#_clip2)">
                            <g transform="matrix(1,0,0,1,-8.50389,-8.503)">
                                <rect x="0" y="0" width="257.953" height="170.078" style="fill:rgb(64,63,69);"/>
                            </g>
                            <g>
                                <g transform="matrix(1,0,0,1,84.00271,-12.1504)">
                                    <path d="M0,33.705L0.096,-0.001L29.237,-16.937L58.572,0L58.477,33.706L29.335,50.642L0,33.705Z" style="fill:rgb(38,38,40);fill-rule:nonzero;"/>
                                </g>
                                <g transform="matrix(1,0,0,1,113.23661,40.8024)">
                                    <path d="M0,-72.201L-2.003,-71.037L-29.151,-55.261L-31.135,-54.107L-31.142,-51.813L-31.23,-20.411L-31.237,-18.095L-29.23,-16.935L-1.902,-1.158L0.104,0L2.107,-1.164L29.256,-16.94L31.239,-18.094L31.246,-20.388L31.335,-51.79L31.341,-54.106L29.335,-55.265L2.007,-71.043L0,-72.201ZM0.007,-67.578L27.335,-51.801L27.246,-20.399L0.098,-4.622L-27.23,-20.4L-27.142,-51.802L0.007,-67.578Z" style="fill:rgb(38,38,40);fill-rule:nonzero;"/>
                                </g>
                                <g transform="matrix(1,0,0,1,249.43881,-13.3103)">
                                    <path d="M0,36.025L-27.148,51.802L-54.476,36.025L-81.624,51.802L-110.958,34.865L-110.862,1.159L-81.721,-15.777L-54.393,-0L-27.245,-15.777L0.081,-0L27.229,-15.777L56.563,1.16L56.469,34.866L27.326,51.802L0,36.025Z" style="fill:rgb(38,38,40);fill-rule:nonzero;"/>
                                </g>
                                <g transform="matrix(1,0,0,1,276.66431,40.8024)">
                                    <path d="M0,-72.201L-2.003,-71.037L-27.147,-56.425L-52.468,-71.043L-54.474,-72.201L-56.478,-71.037L-81.622,-56.425L-106.943,-71.043L-108.95,-72.201L-110.953,-71.037L-138.102,-55.261L-140.085,-54.107L-140.091,-51.813L-140.181,-20.411L-140.187,-18.095L-138.181,-16.935L-110.853,-1.158L-108.846,0L-106.843,-1.164L-81.697,-15.776L-56.377,-1.158L-54.37,0L-52.367,-1.164L-27.222,-15.776L-1.902,-1.158L0.104,0L2.107,-1.164L29.256,-16.94L31.239,-18.094L31.246,-20.388L31.335,-51.79L31.342,-54.106L29.335,-55.265L2.007,-71.043L0,-72.201ZM0.007,-67.578L27.335,-51.801L27.246,-20.399L0.098,-4.622L-27.229,-20.399L-54.377,-4.622L-81.704,-20.399L-108.853,-4.622L-136.181,-20.4L-136.091,-51.802L-108.943,-67.578L-81.615,-51.802L-54.468,-67.578L-27.142,-51.802L0.007,-67.578Z" style="fill:rgb(38,38,40);fill-rule:nonzero;"/>
                                </g>
                                <g transform="matrix(1,0,0,1,303.91431,33.8712)">
                                    <path d="M0,83.2L-27.148,98.977L-54.477,83.199L-81.624,98.977L-108.952,83.199L-136.103,98.977L-165.437,82.04L-165.347,50.644L-192.676,34.867L-192.581,1.159L-163.438,-15.777L-136.111,0.001L-108.961,-15.777L-81.634,0.001L-54.485,-15.777L-27.159,0L-0.011,-15.777L29.323,1.16L29.234,32.556L56.563,48.335L56.468,82.041L27.326,98.977L0,83.2Z" style="fill:rgb(38,38,40);fill-rule:nonzero;"/>
                                </g>
                                <g transform="matrix(1,0,0,1,303.89971,135.1591)">
                                    <path d="M0,-119.376L-2.003,-118.211L-27.147,-103.599L-52.468,-118.217L-54.475,-119.376L-56.478,-118.211L-81.622,-103.599L-106.943,-118.217L-108.95,-119.376L-110.953,-118.211L-136.1,-103.598L-161.421,-118.217L-163.428,-119.376L-165.431,-118.211L-192.579,-102.435L-194.563,-101.282L-194.569,-98.987L-194.658,-67.586L-194.665,-65.269L-192.658,-64.11L-167.337,-49.491L-167.419,-20.411L-167.425,-18.095L-165.419,-16.937L-138.091,-1.158L-136.084,0L-134.081,-1.164L-108.934,-15.777L-83.612,-1.158L-81.606,0L-79.603,-1.164L-54.458,-15.776L-29.137,-1.158L-27.131,0L-25.127,-1.164L0.018,-15.776L25.338,-1.158L27.344,0L29.348,-1.164L56.495,-16.94L58.479,-18.094L58.485,-20.388L58.574,-51.79L58.581,-54.106L56.574,-55.266L31.253,-69.885L31.335,-98.964L31.342,-101.28L29.335,-102.439L2.007,-118.217L0,-119.376ZM0.007,-114.753L27.335,-98.976L27.246,-67.578L27.247,-67.579L54.574,-51.801L54.485,-20.399L27.338,-4.622L0.011,-20.399L-27.137,-4.622L-54.465,-20.4L-54.465,-20.399L-81.612,-4.622L-108.94,-20.4L-108.852,-51.797L-108.853,-51.796L-108.854,-51.797L-108.942,-20.399L-136.091,-4.622L-163.419,-20.4L-163.329,-51.797L-163.33,-51.796L-190.658,-67.574L-190.569,-98.977L-163.421,-114.753L-136.093,-98.976L-136.183,-67.578L-136.182,-67.579L-136.181,-67.578L-136.092,-98.977L-108.943,-114.753L-81.616,-98.976L-81.616,-98.977L-54.468,-114.753L-27.142,-98.977L0.007,-114.753Z" style="fill:rgb(38,38,40);fill-rule:nonzero;"/>
                                </g>
                                <g transform="matrix(1,0,0,1,165.71321,129.3866)">
                                    <path d="M0,33.708L0.095,-0.001L29.237,-16.936L58.571,-0L58.477,33.709L29.334,50.644L0,33.708Z" style="fill:rgb(38,38,40);fill-rule:nonzero;"/>
                                </g>
                                <g transform="matrix(1,0,0,1,194.94661,182.3415)">
                                    <path d="M0,-72.202L-2.003,-71.038L-29.151,-55.261L-31.135,-54.108L-31.142,-51.813L-31.23,-20.412L-31.236,-18.095L-29.23,-16.936L-1.902,-1.158L0.104,0L2.107,-1.164L29.256,-16.941L31.239,-18.094L31.246,-20.389L31.335,-51.79L31.342,-54.107L29.335,-55.265L2.007,-71.043L0,-72.202ZM0.007,-67.579L27.335,-51.802L27.246,-20.399L0.098,-4.623L-27.23,-20.4L-27.142,-51.803L0.007,-67.579Z" style="fill:rgb(38,38,40);fill-rule:nonzero;"/>
                                </g>
                                <g transform="matrix(1,0,0,1,220.19171,129.3876)">
                                    <path d="M0,33.706L0.095,-0.001L29.237,-16.937L56.564,-1.159L83.713,-16.937L111.039,-1.16L138.187,-16.937L167.521,-0L167.426,33.707L138.283,50.643L110.957,34.866L83.81,50.643L56.481,34.865L29.334,50.643L0,33.706Z" style="fill:rgb(38,38,40);fill-rule:nonzero;"/>
                                </g>
                                <g transform="matrix(1,0,0,1,358.37531,182.3415)">
                                    <path d="M0,-72.202L-2.004,-71.038L-27.148,-56.425L-52.468,-71.043L-54.475,-72.202L-56.478,-71.038L-81.623,-56.425L-106.944,-71.043L-108.95,-72.202L-110.954,-71.038L-138.102,-55.261L-140.085,-54.108L-140.092,-51.813L-140.181,-20.412L-140.187,-18.095L-138.181,-16.936L-110.853,-1.158L-108.847,0L-106.843,-1.164L-81.698,-15.777L-56.377,-1.158L-54.371,0L-52.367,-1.164L-27.223,-15.777L-1.903,-1.158L0.104,0L2.106,-1.164L29.255,-16.941L31.238,-18.094L31.245,-20.389L31.334,-51.79L31.341,-54.107L29.334,-55.265L2.006,-71.043L0,-72.202ZM0.006,-67.579L27.334,-51.802L27.245,-20.399L0.097,-4.623L-27.229,-20.399L-54.377,-4.623L-81.705,-20.4L-81.705,-20.399L-108.853,-4.623L-136.181,-20.4L-136.092,-51.803L-108.943,-67.579L-81.616,-51.802L-81.616,-51.803L-54.468,-67.579L-27.142,-51.803L0.006,-67.579Z" style="fill:rgb(38,38,40);fill-rule:nonzero;"/>
                                </g>
                                <g transform="matrix(-0.002834,0.999996,0.999996,0.002834,107.488226,26.321287)">
                                    <path d="M-21.56,5.874L9.842,5.874L-5.858,-21.499L-37.259,-21.499L-21.56,5.874Z" style="fill:rgb(239,53,111);fill-rule:nonzero;"/>
                                </g>
                                <g transform="matrix(0.864614,-0.502437,-0.502437,-0.864614,111.329277,12.633688)">
                                    <path d="M5.757,5.74L37.156,5.74L21.303,-21.366L-10.097,-21.366L5.757,5.74Z" style="fill:rgb(60,193,211);fill-rule:nonzero;"/>
                                </g>
                                <g transform="matrix(0.8646,-0.50246,-0.50246,-0.8646,89.783098,2.68707)">
                                    <path d="M3.688,13.686L35.088,13.686L50.788,-13.687L19.389,-13.686L3.688,13.686Z" style="fill:rgb(64,63,69);fill-rule:nonzero;"/>
                                </g>
                                <g transform="matrix(-0.002834,0.999996,0.999996,0.002834,161.965826,26.321287)">
                                    <path d="M-21.56,5.874L9.842,5.874L-5.858,-21.499L-37.259,-21.498L-21.56,5.874Z" style="fill:rgb(239,53,111);fill-rule:nonzero;"/>
                                </g>
                                <g transform="matrix(0.864614,-0.502437,-0.502437,-0.864614,165.806877,12.633688)">
                                    <path d="M5.757,5.74L37.156,5.74L21.303,-21.366L-10.097,-21.366L5.757,5.74Z" style="fill:rgb(60,193,211);fill-rule:nonzero;"/>
                                </g>
                                <g transform="matrix(0.864592,-0.502474,-0.502474,-0.864592,144.261749,2.687195)">
                                    <path d="M3.688,13.686L35.087,13.686L50.787,-13.687L19.387,-13.685L3.688,13.686Z" style="fill:rgb(64,63,69);fill-rule:nonzero;"/>
                                </g>
                                <g transform="matrix(-0.002834,0.999996,0.999996,0.002834,161.965826,26.321287)">
                                    <path d="M-21.56,5.874L9.842,5.874L-5.858,-21.499L-37.259,-21.498L-21.56,5.874Z" style="fill:rgb(239,53,111);fill-rule:nonzero;"/>
                                </g>
                                <g transform="matrix(0.864614,-0.502437,-0.502437,-0.864614,165.806877,12.633688)">
                                    <path d="M5.757,5.74L37.156,5.74L21.303,-21.366L-10.097,-21.366L5.757,5.74Z" style="fill:rgb(60,193,211);fill-rule:nonzero;"/>
                                </g>
                                <g transform="matrix(0.864592,-0.502474,-0.502474,-0.864592,144.261749,2.687195)">
                                    <path d="M3.688,13.686L35.087,13.686L50.787,-13.687L19.387,-13.685L3.688,13.686Z" style="fill:rgb(64,63,69);fill-rule:nonzero;"/>
                                </g>
                                <g transform="matrix(-0.002834,0.999996,0.999996,0.002834,216.441426,26.321287)">
                                    <path d="M-21.56,5.874L9.842,5.874L-5.858,-21.499L-37.259,-21.498L-21.56,5.874Z" style="fill:rgb(239,53,111);fill-rule:nonzero;"/>
                                </g>
                                <g transform="matrix(0.864614,-0.502437,-0.502437,-0.864614,220.282477,12.633688)">
                                    <path d="M5.757,5.74L37.156,5.74L21.303,-21.366L-10.097,-21.366L5.757,5.74Z" style="fill:rgb(60,193,211);fill-rule:nonzero;"/>
                                </g>
                                <g transform="matrix(0.864592,-0.502474,-0.502474,-0.864592,198.737349,2.687195)">
                                    <path d="M3.688,13.686L35.087,13.686L50.787,-13.687L19.387,-13.685L3.688,13.686Z" style="fill:rgb(64,63,69);fill-rule:nonzero;"/>
                                </g>
                                <g transform="matrix(-0.002834,0.999996,0.999996,0.002834,216.441426,26.321287)">
                                    <path d="M-21.56,5.874L9.842,5.874L-5.858,-21.499L-37.259,-21.498L-21.56,5.874Z" style="fill:rgb(239,53,111);fill-rule:nonzero;"/>
                                </g>
                                <g transform="matrix(0.864614,-0.502437,-0.502437,-0.864614,220.282477,12.633688)">
                                    <path d="M5.757,5.74L37.156,5.74L21.303,-21.366L-10.097,-21.366L5.757,5.74Z" style="fill:rgb(60,193,211);fill-rule:nonzero;"/>
                                </g>
                                <g transform="matrix(0.864592,-0.502474,-0.502474,-0.864592,198.737349,2.687195)">
                                    <path d="M3.688,13.686L35.087,13.686L50.787,-13.687L19.387,-13.685L3.688,13.686Z" style="fill:rgb(64,63,69);fill-rule:nonzero;"/>
                                </g>
                                <g transform="matrix(-0.002834,0.999996,0.999996,0.002834,134.723126,73.503386)">
                                    <path d="M-21.559,5.874L9.843,5.874L-5.858,-21.498L-37.26,-21.498L-21.559,5.874Z" style="fill:rgb(239,53,111);fill-rule:nonzero;"/>
                                </g>
                                <g transform="matrix(0.864614,-0.502437,-0.502437,-0.864614,138.564677,59.816288)">
                                    <path d="M5.757,5.74L37.156,5.74L21.302,-21.365L-10.097,-21.366L5.757,5.74Z" style="fill:rgb(60,193,211);fill-rule:nonzero;"/>
                                </g>
                                <g transform="matrix(0.864614,-0.502437,-0.502437,-0.864614,117.017619,49.868257)">
                                    <path d="M3.688,13.685L35.087,13.685L50.789,-13.687L19.389,-13.687L3.688,13.685Z" style="fill:rgb(64,63,69);fill-rule:nonzero;"/>
                                </g>
                                <g transform="matrix(-0.002834,0.999996,0.999996,0.002834,189.200626,73.503386)">
                                    <path d="M-21.559,5.874L9.843,5.874L-5.858,-21.498L-37.26,-21.498L-21.559,5.874Z" style="fill:rgb(239,53,111);fill-rule:nonzero;"/>
                                </g>
                                <g transform="matrix(0.864614,-0.502437,-0.502437,-0.864614,193.042177,59.816288)">
                                    <path d="M5.757,5.74L37.156,5.74L21.303,-21.366L-10.097,-21.366L5.757,5.74Z" style="fill:rgb(60,193,211);fill-rule:nonzero;"/>
                                </g>
                                <g transform="matrix(0.864614,-0.502437,-0.502437,-0.864614,171.495119,49.868257)">
                                    <path d="M3.688,13.685L35.087,13.685L50.789,-13.687L19.389,-13.687L3.688,13.685Z" style="fill:rgb(64,63,69);fill-rule:nonzero;"/>
                                </g>
                                <g transform="matrix(-0.002834,0.999996,0.999996,0.002834,189.200626,73.503386)">
                                    <path d="M-21.559,5.874L9.843,5.874L-5.858,-21.498L-37.26,-21.498L-21.559,5.874Z" style="fill:rgb(239,53,111);fill-rule:nonzero;"/>
                                </g>
                                <g transform="matrix(0.864614,-0.502437,-0.502437,-0.864614,193.042177,59.816288)">
                                    <path d="M5.757,5.74L37.156,5.74L21.303,-21.366L-10.097,-21.366L5.757,5.74Z" style="fill:rgb(60,193,211);fill-rule:nonzero;"/>
                                </g>
                                <g transform="matrix(0.864614,-0.502437,-0.502437,-0.864614,171.495119,49.868257)">
                                    <path d="M3.688,13.685L35.087,13.685L50.789,-13.687L19.389,-13.687L3.688,13.685Z" style="fill:rgb(64,63,69);fill-rule:nonzero;"/>
                                </g>
                                <g transform="matrix(-0.002834,0.999996,0.999996,0.002834,243.676226,73.503386)">
                                    <path d="M-21.559,5.874L9.843,5.874L-5.858,-21.498L-37.26,-21.498L-21.559,5.874Z" style="fill:rgb(239,53,111);fill-rule:nonzero;"/>
                                </g>
                                <g transform="matrix(0.864614,-0.502437,-0.502437,-0.864614,225.970719,49.868257)">
                                    <path d="M3.688,13.685L35.087,13.685L50.789,-13.687L19.389,-13.687L3.688,13.685Z" style="fill:rgb(64,63,69);fill-rule:nonzero;"/>
                                </g>
                                <g transform="matrix(-0.002834,0.999996,0.999996,0.002834,243.676226,73.503386)">
                                    <path d="M-21.559,5.874L9.843,5.874L-5.858,-21.498L-37.26,-21.498L-21.559,5.874Z" style="fill:rgb(239,53,111);fill-rule:nonzero;"/>
                                </g>
                                <g transform="matrix(0.864614,-0.502437,-0.502437,-0.864614,225.970719,49.868257)">
                                    <path d="M3.688,13.685L35.087,13.685L50.789,-13.687L19.389,-13.687L3.688,13.685Z" style="fill:rgb(64,63,69);fill-rule:nonzero;"/>
                                </g>
                                <g transform="matrix(-0.002834,0.999996,0.999996,0.002834,161.962826,120.677687)">
                                    <path d="M-21.56,5.874L9.842,5.874L-5.858,-21.499L-37.259,-21.498L-21.56,5.874Z" style="fill:rgb(239,53,111);fill-rule:nonzero;"/>
                                </g>
                                <g transform="matrix(0.864614,-0.502437,-0.502437,-0.864614,165.803877,106.990088)">
                                    <path d="M5.757,5.74L37.156,5.74L21.303,-21.366L-10.097,-21.366L5.757,5.74Z" style="fill:rgb(60,193,211);fill-rule:nonzero;"/>
                                </g>
                                <g transform="matrix(0.864592,-0.502474,-0.502474,-0.864592,144.258849,97.043695)">
                                    <path d="M3.688,13.686L35.087,13.686L50.787,-13.687L19.387,-13.685L3.688,13.686Z" style="fill:rgb(64,63,69);fill-rule:nonzero;"/>
                                </g>
                                <g transform="matrix(-0.002834,0.999996,0.999996,0.002834,216.441426,120.677687)">
                                    <path d="M-21.56,5.874L9.842,5.874L-5.858,-21.499L-37.259,-21.499L-21.56,5.874Z" style="fill:rgb(239,53,111);fill-rule:nonzero;"/>
                                </g>
                                <g transform="matrix(0.864614,-0.502437,-0.502437,-0.864614,220.282477,106.990088)">
                                    <path d="M5.757,5.74L37.156,5.74L21.302,-21.365L-10.097,-21.366L5.757,5.74Z" style="fill:rgb(60,193,211);fill-rule:nonzero;"/>
                                </g>
                                <g transform="matrix(0.8646,-0.50246,-0.50246,-0.8646,198.736198,97.04357)">
                                    <path d="M3.688,13.686L35.088,13.686L50.788,-13.687L19.389,-13.686L3.688,13.686Z" style="fill:rgb(64,63,69);fill-rule:nonzero;"/>
                                </g>
                                <g transform="matrix(-0.002834,0.999996,0.999996,0.002834,216.441426,120.677687)">
                                    <path d="M-21.56,5.874L9.842,5.874L-5.858,-21.499L-37.259,-21.499L-21.56,5.874Z" style="fill:rgb(239,53,111);fill-rule:nonzero;"/>
                                </g>
                                <g transform="matrix(0.864614,-0.502437,-0.502437,-0.864614,220.282477,106.990088)">
                                    <path d="M5.757,5.74L37.156,5.74L21.302,-21.365L-10.097,-21.366L5.757,5.74Z" style="fill:rgb(60,193,211);fill-rule:nonzero;"/>
                                </g>
                                <g transform="matrix(0.8646,-0.50246,-0.50246,-0.8646,198.736198,97.04357)">
                                    <path d="M3.688,13.686L35.088,13.686L50.788,-13.687L19.389,-13.686L3.688,13.686Z" style="fill:rgb(64,63,69);fill-rule:nonzero;"/>
                                </g>
                                <g transform="matrix(-0.002834,0.999996,0.999996,0.002834,189.197225,167.859285)">
                                    <path d="M-21.559,5.875L9.842,5.875L-5.857,-21.498L-37.259,-21.498L-21.559,5.875Z" style="fill:rgb(239,53,111);fill-rule:nonzero;"/>
                                </g>
                                <g transform="matrix(0.8646,-0.50246,-0.50246,-0.8646,193.039781,154.172982)">
                                    <path d="M5.757,5.74L37.157,5.74L21.302,-21.366L-10.098,-21.364L5.757,5.74Z" style="fill:rgb(60,193,211);fill-rule:nonzero;"/>
                                </g>
                                <g transform="matrix(0.864614,-0.502437,-0.502437,-0.864614,171.492219,144.224657)">
                                    <path d="M3.688,13.685L35.087,13.685L50.789,-13.687L19.389,-13.687L3.688,13.685Z" style="fill:rgb(64,63,69);fill-rule:nonzero;"/>
                                </g>
                                <g transform="matrix(-0.002866,0.999996,0.999996,0.002866,243.675287,167.859533)">
                                    <path d="M-21.559,5.875L9.842,5.875L-5.857,-21.498L-37.259,-21.499L-21.559,5.875Z" style="fill:rgb(239,53,111);fill-rule:nonzero;"/>
                                </g>
                                <g transform="matrix(0.864614,-0.502437,-0.502437,-0.864614,225.970651,144.224405)">
                                    <path d="M3.688,13.685L35.087,13.685L50.788,-13.686L19.389,-13.687L3.688,13.685Z" style="fill:rgb(64,63,69);fill-rule:nonzero;"/>
                                </g>
                                <g transform="matrix(-0.002866,0.999996,0.999996,0.002866,243.675287,167.859533)">
                                    <path d="M-21.559,5.875L9.842,5.875L-5.857,-21.498L-37.259,-21.499L-21.559,5.875Z" style="fill:rgb(239,53,111);fill-rule:nonzero;"/>
                                </g>
                                <g transform="matrix(0.864614,-0.502437,-0.502437,-0.864614,225.970651,144.224405)">
                                    <path d="M3.688,13.685L35.087,13.685L50.788,-13.686L19.389,-13.687L3.688,13.685Z" style="fill:rgb(64,63,69);fill-rule:nonzero;"/>
                                </g>
                            </g>
                        </g>
                    </g>
                </g>
            </g>
        </g>
    </g>
</svg>
