<?xml version="1.0" encoding="UTF-8" standalone="no"?>
<!DOCTYPE svg PUBLIC "-//W3C//DTD SVG 1.1//EN" "http://www.w3.org/Graphics/SVG/1.1/DTD/svg11.dtd">
<svg width="100%" height="100%" viewBox="0 0 249 249" version="1.1" xmlns="http://www.w3.org/2000/svg" xmlns:xlink="http://www.w3.org/1999/xlink" xml:space="preserve" xmlns:serif="http://www.serif.com/" style="fill-rule:evenodd;clip-rule:evenodd;stroke-linejoin:round;stroke-miterlimit:2;">
    <g transform="matrix(1,0,0,1,-1238.48,-319.462917)">
        <g transform="matrix(4.166667,0,0,4.166667,0,0)">
            <g transform="matrix(1,0,0,1,308.4422,136.3381)">
                <path d="M0,-59.667L37.254,-59.667C43.418,-59.667 48.461,-54.624 48.461,-48.46L48.461,-11.206C48.461,-5.042 43.418,0 37.254,0L0,0C-6.164,0 -11.207,-5.042 -11.207,-11.206L-11.207,-48.46C-11.207,-54.624 -6.164,-59.667 0,-59.667ZM1.789,-36.426C1.726,-33.21 1.751,-24.207 1.764,-23.926C1.836,-22.34 1.927,-20.762 2.406,-19.225C3.116,-16.946 4.496,-15.213 6.565,-14.049C8.337,-13.051 10.288,-12.711 12.296,-12.698C16.123,-12.673 19.95,-12.662 23.777,-12.671C25.784,-12.675 27.785,-12.697 29.739,-13.326C31.888,-14.019 33.549,-15.291 34.716,-17.208C35.688,-18.806 36.099,-20.58 36.129,-22.425C36.195,-26.62 36.241,-30.816 36.223,-35.011C36.216,-36.482 36.095,-37.97 35.844,-39.419C35.418,-41.871 34.145,-43.851 32.057,-45.242C30.204,-46.476 28.108,-46.939 25.916,-46.96C22.017,-46.997 18.117,-47.005 14.218,-46.997C12.189,-46.994 10.162,-46.993 8.194,-46.33C6.182,-45.654 4.592,-44.466 3.43,-42.704C2.175,-40.801 1.833,-38.635 1.789,-36.426ZM5.133,-21.447C4.927,-23.39 4.895,-35.183 5.129,-38.199C5.317,-40.604 6.707,-42.546 9.264,-43.364C10.774,-43.846 12.332,-43.859 13.869,-43.87C18.063,-43.897 22.258,-43.838 26.451,-43.754C28.099,-43.72 29.65,-43.28 30.924,-42.135C32.075,-41.1 32.691,-39.78 32.852,-38.277C32.998,-36.904 33.066,-35.515 33.07,-34.133C33.085,-30.27 33.104,-26.406 33.008,-22.545C32.956,-20.468 32.342,-18.545 30.561,-17.219C29.628,-16.525 28.571,-16.12 27.412,-16.013C22.266,-15.538 17.11,-15.729 11.958,-15.851C10.339,-15.89 8.751,-16.208 7.393,-17.256C6.002,-18.327 5.307,-19.798 5.133,-21.447ZM19.032,-38.659C14.14,-38.718 10.167,-34.818 10.111,-29.907C10.055,-25.001 14.071,-21.014 18.951,-20.975C23.725,-20.936 27.862,-24.821 27.881,-29.774C27.9,-34.754 23.823,-38.696 19.032,-38.659ZM24.722,-29.756C24.72,-26.687 22.143,-24.122 19.056,-24.116C15.821,-24.111 13.286,-26.651 13.286,-29.887C13.285,-32.941 15.87,-35.521 19.014,-35.519C22.209,-35.516 24.819,-32.783 24.722,-29.756ZM28.195,-36.961C29.426,-36.858 30.273,-37.921 30.314,-38.966C30.359,-40.098 29.376,-41.065 28.213,-41.082C27.08,-41.099 26.067,-40.107 26.097,-38.985C26.129,-37.892 27.045,-36.856 28.195,-36.961Z" style="fill:white;"/>
            </g>
        </g>
    </g>
</svg>
