<?xml version="1.0" encoding="UTF-8" standalone="no"?>
<!DOCTYPE svg PUBLIC "-//W3C//DTD SVG 1.1//EN" "http://www.w3.org/Graphics/SVG/1.1/DTD/svg11.dtd">
<svg width="100%" height="100%" viewBox="0 0 249 249" version="1.1" xmlns="http://www.w3.org/2000/svg" xmlns:xlink="http://www.w3.org/1999/xlink" xml:space="preserve" xmlns:serif="http://www.serif.com/" style="fill-rule:evenodd;clip-rule:evenodd;stroke-linejoin:round;stroke-miterlimit:2;">
    <g transform="matrix(1,0,0,1,-273.894583,-1287.692083)">
        <g transform="matrix(4.166667,0,0,4.166667,0,0)">
            <g transform="matrix(1,0,0,1,76.9417,368.7141)">
                <path d="M0,-59.668L37.254,-59.668C43.418,-59.668 48.461,-54.625 48.461,-48.462L48.461,-11.207C48.461,-5.043 43.418,0 37.254,0L0,0C-6.164,0 -11.207,-5.043 -11.207,-11.207L-11.207,-48.462C-11.207,-54.625 -6.164,-59.668 0,-59.668ZM26.964,-35.6C24.196,-35.6 22.252,-34.28 20.892,-32.593L20.892,-35.084L13.698,-35.084L13.698,-13.193L20.892,-13.193L20.892,-26.021C21.087,-28.776 23.054,-29.496 24.45,-29.496C25.92,-29.496 27.776,-28.78 27.776,-24.757L27.776,-13.193L34.97,-13.193L34.97,-28.613C34.97,-28.613 34.648,-35.6 26.964,-35.6ZM9.869,-35.084L2.675,-35.084L2.675,-13.192L9.869,-13.192L9.869,-35.084ZM6.272,-45.721C4.072,-45.721 2.288,-43.937 2.288,-41.737C2.288,-39.536 4.072,-37.753 6.272,-37.753C8.472,-37.753 10.256,-39.536 10.256,-41.737C10.256,-43.937 8.472,-45.721 6.272,-45.721Z" style="fill:white;"/>
            </g>
        </g>
    </g>
</svg>
