<?xml version="1.0" encoding="UTF-8" standalone="no"?>
<!DOCTYPE svg PUBLIC "-//W3C//DTD SVG 1.1//EN" "http://www.w3.org/Graphics/SVG/1.1/DTD/svg11.dtd">
<svg width="100%" height="100%" viewBox="0 0 249 249" version="1.1" xmlns="http://www.w3.org/2000/svg" xmlns:xlink="http://www.w3.org/1999/xlink" xml:space="preserve" xmlns:serif="http://www.serif.com/" style="fill-rule:evenodd;clip-rule:evenodd;stroke-linejoin:round;stroke-miterlimit:2;">
    <g transform="matrix(1,0,0,1,-595.421667,-319.462917)">
        <g transform="matrix(4.166667,0,0,4.166667,0,0)">
            <g transform="matrix(1,0,0,1,154.1082,136.3381)">
                <path d="M0,-59.667L37.255,-59.667C43.418,-59.667 48.461,-54.624 48.461,-48.46L48.461,-11.206C48.461,-5.042 43.418,0 37.255,0L0,0C-6.164,0 -11.207,-5.042 -11.207,-11.206L-11.207,-48.46C-11.207,-54.624 -6.164,-59.667 0,-59.667ZM32.228,-39.549C33.517,-40.576 34.541,-41.662 34.933,-43.194C33.772,-42.741 32.675,-42.27 31.545,-41.897C31.105,-41.751 30.601,-41.457 30.109,-41.937C29.112,-42.911 27.913,-43.504 26.532,-43.744C24.137,-44.16 22.026,-43.588 20.25,-41.924C18.639,-40.414 17.883,-38.538 18,-36.32C18.021,-35.919 18.003,-35.516 18.003,-35.077C18.003,-35.077 17.834,-35.087 17.532,-35.119C14.682,-35.397 12.091,-36.157 9.749,-37.379C7.999,-38.246 6.227,-39.436 4.723,-41.067C4.465,-41.321 3.677,-42.332 3.53,-42.539C3.53,-42.539 2.981,-41.877 2.62,-40.764C2.044,-38.531 2.458,-36.447 3.876,-34.545C4.271,-34.014 4.82,-33.596 5.298,-33.127C5.268,-33.071 5.237,-33.014 5.207,-32.957C4.268,-33.216 3.328,-33.472 2.391,-33.729C2.162,-31.365 3.82,-27.986 7.68,-26.629L4.864,-26.504C6.03,-23.549 8.206,-21.992 11.388,-21.589C8.428,-19.377 5.202,-18.466 1.661,-18.576C1.661,-18.576 13.429,-11.996 23.791,-19.084C25.517,-20.303 31.348,-25.214 32.391,-34.528C32.349,-34.656 32.612,-36.5 32.653,-37.279C32.653,-37.279 34.309,-38.283 35.82,-40.267C34.608,-40.066 33.533,-39.51 32.228,-39.549Z" style="fill:white;"/>
            </g>
        </g>
    </g>
</svg>
